<svg width="348" height="348" viewBox="0 0 348 348" fill="none" xmlns="http://www.w3.org/2000/svg">
<rect width="348" height="348" fill="white"/>
<path d="M139.52 109.075V83.4836H162.82V109.075H139.52ZM162.82 238.18V262.817H139.52V238.18H162.82ZM153.08 243.719C135.255 243.719 120.995 239.772 110.3 231.878C99.6049 223.857 93.3661 212.589 91.5836 198.074H119.849C120.74 205.458 124.305 211.315 130.544 215.644C136.783 219.846 144.741 221.947 154.417 221.947C162.311 221.947 168.359 220.546 172.561 217.745C176.89 214.944 179.054 211.188 179.054 206.477C179.054 202.021 177.781 198.456 175.234 195.782C172.688 192.981 168.295 190.753 162.057 189.098L136.465 182.031C123.351 178.339 113.738 173.31 107.626 166.943C101.642 160.45 98.65 152.365 98.65 142.689C98.65 134.413 100.751 127.283 104.952 121.298C109.281 115.187 115.329 110.54 123.096 107.357C130.863 104.046 139.966 102.391 150.407 102.391C166.449 102.391 179.245 106.211 188.794 113.85C198.343 121.362 203.755 131.357 205.028 143.834H176.762C175.489 137.086 172.37 132.121 167.404 128.938C162.566 125.755 156.327 124.163 148.688 124.163C142.067 124.163 136.783 125.436 132.836 127.983C128.889 130.529 126.916 133.967 126.916 138.296C126.916 141.606 127.998 144.662 130.162 147.463C132.327 150.137 136.847 152.429 143.722 154.339L169.314 161.405C182.81 165.097 192.487 170.19 198.343 176.684C204.328 183.05 207.32 191.135 207.32 200.939C207.32 214.689 202.545 225.257 192.996 232.642C183.447 240.027 170.142 243.719 153.08 243.719Z" fill="black"/>
<path d="M217.451 242V210.488H248.963V242H217.451Z" fill="#FF0000"/>
</svg>
